<?xml version="1.0" encoding="UTF-8" standalone="no"?>
<!-- Created with Inkscape (http://www.inkscape.org/) -->

<svg
   inkscape:version="1.3 (0e150ed6c4, 2023-07-21)"
   version="1.1"
   id="svg2"
   height="576"
   width="576"
   sodipodi:docname="in.svg"
   xmlns:inkscape="http://www.inkscape.org/namespaces/inkscape"
   xmlns:sodipodi="http://sodipodi.sourceforge.net/DTD/sodipodi-0.dtd"
   xmlns:xlink="http://www.w3.org/1999/xlink"
   xmlns="http://www.w3.org/2000/svg"
   xmlns:svg="http://www.w3.org/2000/svg"
   xmlns:rdf="http://www.w3.org/1999/02/22-rdf-syntax-ns#"
   xmlns:cc="http://creativecommons.org/ns#"
   xmlns:dc="http://purl.org/dc/elements/1.1/">
  <defs
     id="defs4">
    <linearGradient
       inkscape:collect="always"
       id="linearGradient7591">
      <stop
         style="stop-color:#909090;stop-opacity:1;"
         offset="0"
         id="stop7593" />
      <stop
         id="stop7611"
         offset="0.09148541"
         style="stop-color:#808080;stop-opacity:1" />
      <stop
         id="stop7605"
         offset="0.18297082"
         style="stop-color:#909090;stop-opacity:1" />
      <stop
         id="stop7601"
         offset="0.2559858"
         style="stop-color:#e6e6e6;stop-opacity:1" />
      <stop
         id="stop7599"
         offset="0.29492006"
         style="stop-color:#ececec;stop-opacity:1" />
      <stop
         style="stop-color:#cccccc;stop-opacity:1"
         offset="0.33032393"
         id="stop7603" />
      <stop
         id="stop7607"
         offset="0.4275125"
         style="stop-color:#909090;stop-opacity:1" />
      <stop
         style="stop-color:#909090;stop-opacity:1;"
         offset="0.66679001"
         id="stop7609" />
      <stop
         style="stop-color:#7f7a81;stop-opacity:1"
         offset="1"
         id="stop7595" />
    </linearGradient>
    <linearGradient
       inkscape:collect="always"
       id="linearGradient7558">
      <stop
         style="stop-color:#bbb9b9;stop-opacity:1;"
         offset="0"
         id="stop7560" />
      <stop
         id="stop7629"
         offset="0.645199"
         style="stop-color:#808080;stop-opacity:1" />
      <stop
         id="stop7568"
         offset="0.95996457"
         style="stop-color:#bbb9b9;stop-opacity:1" />
      <stop
         id="stop7566"
         offset="0.9810257"
         style="stop-color:#f2f2f2;stop-opacity:1" />
      <stop
         style="stop-color:#bbb9b9;stop-opacity:1"
         offset="1"
         id="stop7562" />
    </linearGradient>
    <linearGradient
       inkscape:collect="always"
       id="linearGradient7548">
      <stop
         style="stop-color:#43425c;stop-opacity:1;"
         offset="0"
         id="stop7550" />
      <stop
         id="stop7556"
         offset="0.5"
         style="stop-color:#43425c;stop-opacity:0" />
      <stop
         style="stop-color:#43425c;stop-opacity:1"
         offset="1"
         id="stop7552" />
    </linearGradient>
    <linearGradient
       inkscape:collect="always"
       id="linearGradient7323">
      <stop
         style="stop-color:#635d5d;stop-opacity:1;"
         offset="0"
         id="stop7325" />
      <stop
         id="stop7331"
         offset="0.7647059"
         style="stop-color:#cccccc;stop-opacity:1" />
      <stop
         style="stop-color:#635d5d;stop-opacity:1"
         offset="1"
         id="stop7327" />
    </linearGradient>
    <linearGradient
       inkscape:collect="always"
       id="linearGradient7225">
      <stop
         style="stop-color:#8c8e8a;stop-opacity:1;"
         offset="0"
         id="stop7227" />
      <stop
         id="stop7235"
         offset="0.33875167"
         style="stop-color:#c5c6c4;stop-opacity:1;" />
      <stop
         id="stop7233"
         offset="0.5"
         style="stop-color:#ffffff;stop-opacity:1" />
      <stop
         style="stop-color:#b7b8b6;stop-opacity:1;"
         offset="0.69821703"
         id="stop7237" />
      <stop
         style="stop-color:#8c8e8a;stop-opacity:0.99823529"
         offset="1"
         id="stop7229" />
    </linearGradient>
    <linearGradient
       inkscape:collect="always"
       id="linearGradient7209">
      <stop
         style="stop-color:#635d5d;stop-opacity:1;"
         offset="0"
         id="stop7211" />
      <stop
         id="stop7217"
         offset="0.20499353"
         style="stop-color:#f5faf7;stop-opacity:1" />
      <stop
         style="stop-color:#d0d2d0;stop-opacity:1;"
         offset="0.50132185"
         id="stop7223" />
      <stop
         style="stop-color:#acabaa;stop-opacity:1;"
         offset="0.57916743"
         id="stop7221" />
      <stop
         style="stop-color:#635d5d;stop-opacity:1"
         offset="0.88993895"
         id="stop7219" />
      <stop
         style="stop-color:#899999;stop-opacity:1"
         offset="1"
         id="stop7213" />
    </linearGradient>
    <linearGradient
       inkscape:collect="always"
       xlink:href="#linearGradient7209"
       id="linearGradient7215"
       x1="6460"
       y1="527.37476"
       x2="7060"
       y2="527.37476"
       gradientUnits="userSpaceOnUse"
       gradientTransform="matrix(4.11428,0,0,4.11428,-18870.136,-2138.6317)" />
    <linearGradient
       inkscape:collect="always"
       xlink:href="#linearGradient7225"
       id="linearGradient7231"
       x1="6740"
       y1="52.625"
       x2="6780"
       y2="52.625"
       gradientUnits="userSpaceOnUse"
       gradientTransform="matrix(4.11428,0,0,4.11428,-18870.136,-2138.6317)" />
    <linearGradient
       inkscape:collect="always"
       xlink:href="#linearGradient7225"
       id="linearGradient7245"
       x1="6799.5"
       y1="52.642593"
       x2="6840.5"
       y2="52.642593"
       gradientUnits="userSpaceOnUse"
       gradientTransform="matrix(4.11428,0,0,4.11428,-19116.993,-2138.6317)" />
    <linearGradient
       inkscape:collect="always"
       xlink:href="#linearGradient7225"
       id="linearGradient7253"
       x1="6859.5"
       y1="57.61171"
       x2="6900.5"
       y2="57.61171"
       gradientUnits="userSpaceOnUse"
       gradientTransform="matrix(4.11428,0,0,4.11428,-19363.85,-2138.6317)" />
    <linearGradient
       inkscape:collect="always"
       xlink:href="#linearGradient7225"
       id="linearGradient7261"
       x1="6919.5"
       y1="79.072357"
       x2="6960.5"
       y2="79.072357"
       gradientUnits="userSpaceOnUse"
       gradientTransform="matrix(4.11428,0,0,4.11428,-19610.707,-2138.6317)" />
    <linearGradient
       inkscape:collect="always"
       xlink:href="#linearGradient7225"
       id="linearGradient7269"
       x1="6679"
       y1="52.642593"
       x2="6720"
       y2="52.642593"
       gradientUnits="userSpaceOnUse"
       gradientTransform="matrix(4.11428,0,0,4.11428,-18621.222,-2138.6317)" />
    <linearGradient
       inkscape:collect="always"
       xlink:href="#linearGradient7225"
       id="linearGradient7277"
       x1="6619"
       y1="57.61171"
       x2="6660"
       y2="57.61171"
       gradientUnits="userSpaceOnUse"
       gradientTransform="matrix(4.11428,0,0,4.11428,-18374.365,-2138.6317)" />
    <linearGradient
       inkscape:collect="always"
       xlink:href="#linearGradient7225"
       id="linearGradient7285"
       x1="6559"
       y1="79.072357"
       x2="6600"
       y2="79.072357"
       gradientUnits="userSpaceOnUse"
       gradientTransform="matrix(4.11428,0,0,4.11428,-18127.509,-2138.6317)" />
    <linearGradient
       inkscape:collect="always"
       xlink:href="#linearGradient7225"
       id="linearGradient7293"
       x1="6481"
       y1="298.23727"
       x2="6481"
       y2="316.07364"
       gradientUnits="userSpaceOnUse"
       gradientTransform="matrix(4.11428,0,0,4.11428,-17678.024,-2138.6317)" />
    <linearGradient
       inkscape:collect="always"
       xlink:href="#linearGradient7225"
       id="linearGradient7301"
       x1="6481"
       y1="718.21167"
       x2="6481"
       y2="737.34943"
       gradientUnits="userSpaceOnUse"
       gradientTransform="matrix(4.11428,0,0,4.11428,-17678.024,-2138.6317)" />
    <linearGradient
       inkscape:collect="always"
       xlink:href="#linearGradient7225"
       id="linearGradient7303"
       x1="6481"
       y1="658.21167"
       x2="6481"
       y2="677.34943"
       gradientUnits="userSpaceOnUse"
       gradientTransform="matrix(4.11428,0,0,4.11428,-17678.024,-2138.6317)" />
    <linearGradient
       inkscape:collect="always"
       xlink:href="#linearGradient7225"
       id="linearGradient7305"
       x1="6481"
       y1="598.21167"
       x2="6481"
       y2="617.34943"
       gradientUnits="userSpaceOnUse"
       gradientTransform="matrix(4.11428,0,0,4.11428,-17678.024,-2138.6317)" />
    <linearGradient
       inkscape:collect="always"
       xlink:href="#linearGradient7225"
       id="linearGradient7307"
       x1="6481"
       y1="538.21167"
       x2="6481"
       y2="557.34943"
       gradientUnits="userSpaceOnUse"
       gradientTransform="matrix(4.11428,0,0,4.11428,-17678.024,-2138.6317)" />
    <linearGradient
       inkscape:collect="always"
       xlink:href="#linearGradient7225"
       id="linearGradient7309"
       x1="6481"
       y1="477.85452"
       x2="6481"
       y2="497.375"
       gradientUnits="userSpaceOnUse"
       gradientTransform="matrix(4.11428,0,0,4.11428,-17678.024,-2138.6317)" />
    <linearGradient
       inkscape:collect="always"
       xlink:href="#linearGradient7225"
       id="linearGradient7311"
       x1="6481"
       y1="418.23727"
       x2="6481"
       y2="437.375"
       gradientUnits="userSpaceOnUse"
       gradientTransform="matrix(4.11428,0,0,4.11428,-17678.024,-2138.6317)" />
    <linearGradient
       inkscape:collect="always"
       xlink:href="#linearGradient7225"
       id="linearGradient7313"
       x1="6481"
       y1="357.47177"
       x2="6481"
       y2="377.375"
       gradientUnits="userSpaceOnUse"
       gradientTransform="matrix(4.11428,0,0,4.11428,-17678.024,-2138.6317)" />
    <linearGradient
       inkscape:collect="always"
       xlink:href="#linearGradient7323"
       id="linearGradient7329"
       x1="7039.5"
       y1="317.375"
       x2="7039.5"
       y2="297.73767"
       gradientUnits="userSpaceOnUse"
       gradientTransform="matrix(4.11428,0,0,4.11428,-20062.249,-2138.6317)" />
    <linearGradient
       inkscape:collect="always"
       xlink:href="#linearGradient7323"
       id="linearGradient7359"
       x1="7039"
       y1="557.34943"
       x2="7039"
       y2="537.8045"
       gradientUnits="userSpaceOnUse"
       gradientTransform="matrix(4.11428,0,0,4.11428,-20062.249,-2138.6317)" />
    <linearGradient
       inkscape:collect="always"
       xlink:href="#linearGradient7323"
       id="linearGradient7361"
       x1="7039"
       y1="617.34943"
       x2="7039"
       y2="597.2616"
       gradientUnits="userSpaceOnUse"
       gradientTransform="matrix(4.11428,0,0,4.11428,-20062.249,-2138.6317)" />
    <linearGradient
       inkscape:collect="always"
       xlink:href="#linearGradient7323"
       id="linearGradient7363"
       x1="7039"
       y1="677.34943"
       x2="7039"
       y2="658.34741"
       gradientUnits="userSpaceOnUse"
       gradientTransform="matrix(4.11428,0,0,4.11428,-20062.249,-2138.6317)" />
    <linearGradient
       inkscape:collect="always"
       xlink:href="#linearGradient7323"
       id="linearGradient7365"
       x1="7039"
       y1="737.34943"
       x2="7039"
       y2="717.8045"
       gradientUnits="userSpaceOnUse"
       gradientTransform="matrix(4.11428,0,0,4.11428,-20062.249,-2138.6317)" />
    <linearGradient
       inkscape:collect="always"
       xlink:href="#linearGradient7323"
       id="linearGradient7367"
       x1="7039"
       y1="497.375"
       x2="7039"
       y2="477.83008"
       gradientUnits="userSpaceOnUse"
       gradientTransform="matrix(4.11428,0,0,4.11428,-20062.249,-2138.6317)" />
    <linearGradient
       inkscape:collect="always"
       xlink:href="#linearGradient7323"
       id="linearGradient7369"
       x1="7039"
       y1="437.375"
       x2="7039"
       y2="418.37299"
       gradientUnits="userSpaceOnUse"
       gradientTransform="matrix(4.11428,0,0,4.11428,-20062.249,-2138.6317)" />
    <linearGradient
       inkscape:collect="always"
       xlink:href="#linearGradient7323"
       id="linearGradient7371"
       x1="7039"
       y1="377.375"
       x2="7039"
       y2="358.64444"
       gradientUnits="userSpaceOnUse"
       gradientTransform="matrix(4.11428,0,0,4.11428,-20062.249,-2138.6317)" />
    <filter
       inkscape:collect="always"
       style="color-interpolation-filters:sRGB"
       id="filter7454"
       x="-0.012433567"
       width="1.0248671"
       y="-0.011595652"
       height="1.0231913">
      <feGaussianBlur
         inkscape:collect="always"
         stdDeviation="0.17643542"
         id="feGaussianBlur7456" />
    </filter>
    <filter
       inkscape:collect="always"
       style="color-interpolation-filters:sRGB"
       id="filter7467"
       x="-0.024000553"
       width="1.0480011"
       y="-0.023999447"
       height="1.0479989">
      <feGaussianBlur
         inkscape:collect="always"
         stdDeviation="0.40571335"
         id="feGaussianBlur7469" />
    </filter>
    <clipPath
       clipPathUnits="userSpaceOnUse"
       id="clipPath7473">
      <circle
         r="20.285686"
         cy="527.36224"
         cx="6760"
         id="circle7475"
         style="fill:#43425c;fill-opacity:1;stroke:none;stroke-width:1;stroke-linecap:butt;stroke-linejoin:miter;stroke-miterlimit:4;stroke-dasharray:none;stroke-dashoffset:0;stroke-opacity:1" />
    </clipPath>
    <linearGradient
       inkscape:collect="always"
       xlink:href="#linearGradient7548"
       id="linearGradient7554"
       x1="7060"
       y1="1408.355"
       x2="7060"
       y2="-165.8902"
       gradientUnits="userSpaceOnUse"
       gradientTransform="matrix(4.11428,0,0,4.11428,-18870.143,-2138.6317)" />
    <linearGradient
       inkscape:collect="always"
       xlink:href="#linearGradient7558"
       id="linearGradient7564"
       x1="7102.502"
       y1="1158.0684"
       x2="7102.502"
       y2="489.62311"
       gradientUnits="userSpaceOnUse"
       gradientTransform="matrix(4.11428,0,0,4.11428,-18870.136,-2138.6317)" />
    <filter
       inkscape:collect="always"
       style="color-interpolation-filters:sRGB"
       id="filter7585"
       x="-0.011616774"
       width="1.0232335"
       y="-0.012409373"
       height="1.0248187">
      <feGaussianBlur
         inkscape:collect="always"
         stdDeviation="3.3156383"
         id="feGaussianBlur7587" />
    </filter>
    <linearGradient
       inkscape:collect="always"
       xlink:href="#linearGradient7591"
       id="linearGradient7597"
       x1="6710"
       y1="1442.3622"
       x2="6810"
       y2="1442.3622"
       gradientUnits="userSpaceOnUse"
       gradientTransform="matrix(4.11428,0,0,1.2537619,-18870.136,1172.0238)" />
  </defs>
  <sodipodi:namedview
     id="base"
     pagecolor="#ffffff"
     bordercolor="#666666"
     borderopacity="1.0"
     inkscape:pageopacity="0.0"
     inkscape:pageshadow="2"
     inkscape:zoom="1"
     inkscape:cx="71"
     inkscape:cy="309.5"
     inkscape:document-units="px"
     inkscape:current-layer="layer2"
     showgrid="false"
     inkscape:window-width="1920"
     inkscape:window-height="1129"
     inkscape:window-x="0"
     inkscape:window-y="1192"
     inkscape:window-maximized="1"
     showguides="true"
     inkscape:guide-bbox="true"
     inkscape:snap-bbox="true"
     inkscape:snap-global="true"
     inkscape:snap-nodes="true"
     inkscape:object-paths="true"
     inkscape:snap-bbox-midpoints="true"
     fit-margin-top="0"
     fit-margin-left="0"
     fit-margin-right="0"
     fit-margin-bottom="0"
     inkscape:showpageshadow="2"
     inkscape:pagecheckerboard="0"
     inkscape:deskcolor="#d1d1d1">
    <inkscape:grid
       type="xygrid"
       id="grid6110"
       originx="-6310"
       originy="910"
       spacingy="1"
       spacingx="1"
       units="px"
       visible="false" />
  </sodipodi:namedview>
  <metadata
     id="metadata7">
    <rdf:RDF>
      <cc:Work
         rdf:about="">
        <dc:format>image/svg+xml</dc:format>
        <dc:type
           rdf:resource="http://purl.org/dc/dcmitype/StillImage" />
      </cc:Work>
    </rdf:RDF>
  </metadata>
  <g
     inkscape:groupmode="layer"
     id="layer2"
     inkscape:label="mic1"
     style="display:inline"
     transform="matrix(0.10101159,0,0,0.10178758,-615.28572,1.9950808)">
    <g
       id="g1"
       transform="translate(2.909625e-5,2123.1036)">
      <rect
         style="fill:#000000;fill-rule:evenodd;stroke:none;stroke-width:4.11428px;stroke-linecap:butt;stroke-linejoin:miter;stroke-opacity:1"
         id="rect7589"
         width="2530.2822"
         height="158.98569"
         x="7677.2559"
         y="52.758316" />
      <path
         style="fill:#43425c;fill-opacity:1;stroke:none;stroke-width:4.11428;stroke-linecap:butt;stroke-linejoin:miter;stroke-miterlimit:4;stroke-dasharray:none;stroke-dashoffset:0;stroke-opacity:1"
         d="m 8572.1116,-1964.2891 c -478.6553,0 -863.9988,385.3435 -863.9988,863.9988 v 2262.854 c 0,478.6554 385.3435,863.9988 863.9988,863.9988 h 740.5704 c 478.6554,0 863.999,-385.3434 863.999,-863.9988 v -2262.854 c 0,-478.6553 -385.3436,-863.9988 -863.999,-863.9988 z"
         id="path6133"
         inkscape:connector-curvature="0" />
      <path
         style="fill:url(#linearGradient7231);fill-opacity:1;stroke:none;stroke-width:4.11428;stroke-linecap:butt;stroke-linejoin:miter;stroke-miterlimit:4;stroke-dasharray:none;stroke-dashoffset:0;stroke-opacity:1"
         d="m 8860.1112,-1964.2891 v 84.3428 h 164.5712 v -84.3428 z"
         id="path6049"
         inkscape:connector-curvature="0" />
      <path
         style="fill:url(#linearGradient7245);fill-opacity:1;stroke:none;stroke-width:4.11428;stroke-linecap:butt;stroke-linejoin:miter;stroke-miterlimit:4;stroke-dasharray:none;stroke-dashoffset:0;stroke-opacity:1"
         d="m 8860.1112,-1964.2891 v 84.3428 h 157.8855 c 2.2304,0 4.4595,0.1111 6.6857,0.1286 v -84.4714 z"
         id="path6054"
         inkscape:connector-curvature="0" />
      <path
         style="fill:url(#linearGradient7253);fill-opacity:1;stroke:none;stroke-width:4.11428;stroke-linecap:butt;stroke-linejoin:miter;stroke-miterlimit:4;stroke-dasharray:none;stroke-dashoffset:0;stroke-opacity:1"
         d="m 8860.1112,-1963.2605 v 88.0713 c 56.8219,6.0215 111.834,17.7336 164.5712,34.5857 v -99.1284 c 0,0 0,-0.1262 0,-0.1286 -1.3174,-0.3196 -2.666,-0.5864 -3.9859,-0.9 -4.09,-0.9718 -8.2306,-1.9146 -12.3428,-2.8286 -1.2516,-0.2779 -2.4744,-0.6275 -3.7284,-0.9 -3.6938,-0.8039 -7.3456,-1.5573 -11.0571,-2.3143 -0.8969,-0.1826 -1.8021,-0.3344 -2.7002,-0.5142 -6.1533,-1.2325 -12.3132,-2.3697 -18.5143,-3.4715 -5.9534,-1.0578 -12.0042,-2.0211 -18,-2.9571 -1.166,-0.1826 -2.3035,-0.465 -3.4712,-0.6429 -2.3904,-0.3632 -4.803,-0.6848 -7.2,-1.0285 -4.7709,-0.6858 -9.6035,-1.3207 -14.4,-1.9286 -14.4464,-1.8259 -28.9209,-3.2625 -43.5854,-4.3714 -7.3325,-0.5545 -14.7312,-1.0425 -22.1143,-1.4143 -1.1524,-0.058 -2.3184,-0.075 -3.4716,-0.1286 z"
         id="path6059"
         inkscape:connector-curvature="0" />
      <path
         style="fill:url(#linearGradient7261);fill-opacity:1;stroke:none;stroke-width:4.11428;stroke-linecap:butt;stroke-linejoin:miter;stroke-miterlimit:4;stroke-dasharray:none;stroke-dashoffset:0;stroke-opacity:1"
         d="m 8860.1112,-1915.432 v 106.0713 c 58.8169,26.0154 113.9816,58.5845 164.5712,96.9427 v -124.7141 c -6.4372,-3.9503 -12.9941,-7.7871 -19.5428,-11.5714 -4.8907,-2.8263 -9.8344,-5.6248 -14.7859,-8.3571 -1.6791,-0.9267 -3.3281,-1.9128 -5.0141,-2.8286 -0.2551,-0.1376 -0.518,-0.2484 -0.7714,-0.3857 -3.061,-1.6588 -6.1735,-3.263 -9.2571,-4.8857 -3.0997,-1.6307 -6.1353,-3.2917 -9.2572,-4.8857 -0.2551,-0.1308 -0.5155,-0.2552 -0.7714,-0.3857 -5.9599,-3.0353 -11.9602,-5.9714 -18,-8.8715 -0.8109,-0.3895 -1.6305,-0.77 -2.4426,-1.1571 -5.4992,-2.6192 -11.023,-5.2085 -16.5859,-7.7143 -3.5593,-1.6041 -7.0865,-3.1999 -10.6712,-4.7571 -4.6051,-1.9994 -9.2395,-3.9929 -13.8857,-5.9143 -0.214,-0.088 -0.4296,-0.1691 -0.6431,-0.2571 -0.6031,-0.2488 -1.1964,-0.524 -1.8,-0.7715 -6.4656,-2.6502 -12.9991,-5.0882 -19.5428,-7.5857 -7.1547,-2.7306 -14.3543,-5.4259 -21.6,-7.9714 z"
         id="path6066"
         inkscape:connector-curvature="0" />
      <path
         style="fill:#6a6e79;fill-opacity:1;stroke:none;stroke-width:4.11428;stroke-linecap:butt;stroke-linejoin:miter;stroke-miterlimit:4;stroke-dasharray:none;stroke-dashoffset:0;stroke-opacity:1"
         d="m 8860.1112,1942.2198 v 22.6285 c 0,34.1897 27.5245,61.7142 61.7142,61.7142 h 41.1428 c 34.1897,0 61.7142,-27.5245 61.7142,-61.7142 v -22.6285 z"
         id="path6075"
         inkscape:connector-curvature="0" />
      <path
         style="fill:#6a6e79;fill-opacity:1;stroke:none;stroke-width:4.11428;stroke-linecap:butt;stroke-linejoin:miter;stroke-miterlimit:4;stroke-dasharray:none;stroke-dashoffset:0;stroke-opacity:1"
         d="m 9024.6824,1942.0912 c -2.2262,0.016 -4.4553,0.1288 -6.6857,0.1288 h -157.8855 v 22.6286 c 0,34.1894 27.5245,61.7139 61.7142,61.7139 h 41.1428 c 34.1897,0 61.7142,-27.5245 61.7142,-61.7139 v -22.7572 z"
         id="path6084"
         inkscape:connector-curvature="0" />
      <path
         style="fill:#6a6e79;fill-opacity:1;stroke:none;stroke-width:4.11428;stroke-linecap:butt;stroke-linejoin:miter;stroke-miterlimit:4;stroke-dasharray:none;stroke-dashoffset:0;stroke-opacity:1"
         d="m 9024.6824,1902.877 c -52.7372,16.8521 -107.7493,28.5642 -164.5712,34.5857 v 15.0428 c 0,34.1897 27.5245,61.7142 61.7142,61.7142 h 41.1428 c 1.3088,0 2.569,-0.1769 3.8572,-0.2592 4.8276,-0.8278 9.7286,-1.6642 14.5287,-2.5714 0.091,0 0.1687,-0.1111 0.2551,-0.1276 25.0099,-7.8751 43.0716,-31.0792 43.0716,-58.7568 v -49.6285 z"
         id="path6089"
         inkscape:connector-curvature="0" />
      <path
         style="fill:#6a6e79;fill-opacity:1;stroke:none;stroke-width:4.11428;stroke-linecap:butt;stroke-linejoin:miter;stroke-miterlimit:4;stroke-dasharray:none;stroke-dashoffset:0;stroke-opacity:1"
         d="m 9024.2967,1774.6915 c -50.3629,38.1863 -105.2791,70.5997 -163.7998,96.557 4.4583,29.747 29.915,52.457 60.9428,52.457 h 41.1428 c 34.1897,0 61.7142,-27.5245 61.7142,-61.7142 z"
         id="rect6094"
         inkscape:connector-curvature="0" />
      <path
         style="fill:url(#linearGradient7329);fill-opacity:1;stroke:none;stroke-width:4.11428;stroke-linecap:butt;stroke-linejoin:miter;stroke-miterlimit:4;stroke-dasharray:none;stroke-dashoffset:0;stroke-opacity:1"
         d="m 8900.2255,-915.14765 v 164.5712 h 2.0571 c 45.5862,0 82.2856,-36.69942 82.2856,-82.2856 0,-45.58618 -36.6994,-82.2856 -82.2856,-82.2856 z"
         id="path6099"
         inkscape:connector-curvature="0" />
      <path
         style="fill:url(#linearGradient7371);fill-opacity:1;stroke:none;stroke-width:4.11428;stroke-linecap:butt;stroke-linejoin:miter;stroke-miterlimit:4;stroke-dasharray:none;stroke-dashoffset:0;stroke-opacity:1"
         d="m 8900.2255,-668.29085 v 164.5712 h 2.0571 c 45.5862,0 82.2856,-36.69942 82.2856,-82.2856 0,-45.58618 -36.6994,-82.2856 -82.2856,-82.2856 z"
         id="path6104"
         inkscape:connector-curvature="0" />
      <path
         style="fill:url(#linearGradient7369);fill-opacity:1;stroke:none;stroke-width:4.11428;stroke-linecap:butt;stroke-linejoin:miter;stroke-miterlimit:4;stroke-dasharray:none;stroke-dashoffset:0;stroke-opacity:1"
         d="m 8900.2255,-421.43405 v 164.5712 h 2.0571 c 45.5862,0 82.2856,-36.69942 82.2856,-82.2856 0,-45.58618 -36.6994,-82.2856 -82.2856,-82.2856 z"
         id="path6109"
         inkscape:connector-curvature="0" />
      <path
         style="fill:url(#linearGradient7367);fill-opacity:1;stroke:none;stroke-width:4.11428;stroke-linecap:butt;stroke-linejoin:miter;stroke-miterlimit:4;stroke-dasharray:none;stroke-dashoffset:0;stroke-opacity:1"
         d="m 8900.2255,-174.57725 v 164.5712 h 2.0571 c 45.5862,0 82.2856,-36.699419 82.2856,-82.2856 0,-45.58618 -36.6994,-82.2856 -82.2856,-82.2856 z"
         id="path6114"
         inkscape:connector-curvature="0" />
      <path
         inkscape:connector-curvature="0"
         id="path6158"
         d="m 8984.5682,-915.14765 v 164.5712 h -2.0572 c -45.5862,0 -82.2856,-36.69942 -82.2856,-82.2856 0,-45.58618 36.6994,-82.2856 82.2856,-82.2856 z"
         style="fill:url(#linearGradient7293);fill-opacity:1;stroke:none;stroke-width:4.11428;stroke-linecap:butt;stroke-linejoin:miter;stroke-miterlimit:4;stroke-dasharray:none;stroke-dashoffset:0;stroke-opacity:1" />
      <path
         inkscape:connector-curvature="0"
         id="path6160"
         d="m 8984.5682,-668.29085 v 164.5712 h -2.0572 c -45.5862,0 -82.2856,-36.69942 -82.2856,-82.2856 0,-45.58618 36.6994,-82.2856 82.2856,-82.2856 z"
         style="fill:url(#linearGradient7313);fill-opacity:1;stroke:none;stroke-width:4.11428;stroke-linecap:butt;stroke-linejoin:miter;stroke-miterlimit:4;stroke-dasharray:none;stroke-dashoffset:0;stroke-opacity:1" />
      <path
         inkscape:connector-curvature="0"
         id="path6162"
         d="m 8984.5682,-421.43405 v 164.5712 h -2.0572 c -45.5862,0 -82.2856,-36.69942 -82.2856,-82.2856 0,-45.58618 36.6994,-82.2856 82.2856,-82.2856 z"
         style="fill:url(#linearGradient7311);fill-opacity:1;stroke:none;stroke-width:4.11428;stroke-linecap:butt;stroke-linejoin:miter;stroke-miterlimit:4;stroke-dasharray:none;stroke-dashoffset:0;stroke-opacity:1" />
      <path
         inkscape:connector-curvature="0"
         id="path6164"
         d="m 8984.5682,-174.57725 v 164.5712 h -2.0572 c -45.5862,0 -82.2856,-36.699419 -82.2856,-82.2856 0,-45.58618 36.6994,-82.2856 82.2856,-82.2856 z"
         style="fill:url(#linearGradient7309);fill-opacity:1;stroke:none;stroke-width:4.11428;stroke-linecap:butt;stroke-linejoin:miter;stroke-miterlimit:4;stroke-dasharray:none;stroke-dashoffset:0;stroke-opacity:1" />
      <path
         inkscape:connector-curvature="0"
         id="path6178"
         d="m 8900.2255,977.31582 v -164.5712 h 2.0571 c 45.5862,0 82.2856,36.69942 82.2856,82.2856 0,45.58619 -36.6994,82.2856 -82.2856,82.2856 z"
         style="fill:url(#linearGradient7365);fill-opacity:1;stroke:none;stroke-width:4.11428;stroke-linecap:butt;stroke-linejoin:miter;stroke-miterlimit:4;stroke-dasharray:none;stroke-dashoffset:0;stroke-opacity:1" />
      <path
         inkscape:connector-curvature="0"
         id="path6180"
         d="m 8900.2255,730.45902 v -164.5712 h 2.0571 c 45.5862,0 82.2856,36.69942 82.2856,82.2856 0,45.58619 -36.6994,82.2856 -82.2856,82.2856 z"
         style="fill:url(#linearGradient7363);fill-opacity:1;stroke:none;stroke-width:4.11428;stroke-linecap:butt;stroke-linejoin:miter;stroke-miterlimit:4;stroke-dasharray:none;stroke-dashoffset:0;stroke-opacity:1" />
      <path
         inkscape:connector-curvature="0"
         id="path6182"
         d="m 8900.2255,483.60222 v -164.5712 h 2.0571 c 45.5862,0 82.2856,36.69942 82.2856,82.2856 0,45.58619 -36.6994,82.2856 -82.2856,82.2856 z"
         style="fill:url(#linearGradient7361);fill-opacity:1;stroke:none;stroke-width:4.11428;stroke-linecap:butt;stroke-linejoin:miter;stroke-miterlimit:4;stroke-dasharray:none;stroke-dashoffset:0;stroke-opacity:1" />
      <path
         inkscape:connector-curvature="0"
         id="path6184"
         d="M 8900.2255,236.74542 V 72.174224 h 2.0571 c 45.5862,0 82.2856,36.699416 82.2856,82.285596 0,45.58619 -36.6994,82.2856 -82.2856,82.2856 z"
         style="fill:url(#linearGradient7359);fill-opacity:1;stroke:none;stroke-width:4.11428;stroke-linecap:butt;stroke-linejoin:miter;stroke-miterlimit:4;stroke-dasharray:none;stroke-dashoffset:0;stroke-opacity:1" />
      <path
         style="fill:url(#linearGradient7301);fill-opacity:1;stroke:none;stroke-width:4.11428;stroke-linecap:butt;stroke-linejoin:miter;stroke-miterlimit:4;stroke-dasharray:none;stroke-dashoffset:0;stroke-opacity:1"
         d="m 8984.5682,977.31582 v -164.5712 h -2.0572 c -45.5862,0 -82.2856,36.69942 -82.2856,82.2856 0,45.58619 36.6994,82.2856 82.2856,82.2856 z"
         id="path6198"
         inkscape:connector-curvature="0" />
      <path
         style="fill:url(#linearGradient7303);fill-opacity:1;stroke:none;stroke-width:4.11428;stroke-linecap:butt;stroke-linejoin:miter;stroke-miterlimit:4;stroke-dasharray:none;stroke-dashoffset:0;stroke-opacity:1"
         d="m 8984.5682,730.45902 v -164.5712 h -2.0572 c -45.5862,0 -82.2856,36.69942 -82.2856,82.2856 0,45.58619 36.6994,82.2856 82.2856,82.2856 z"
         id="path6200"
         inkscape:connector-curvature="0" />
      <path
         style="fill:url(#linearGradient7305);fill-opacity:1;stroke:none;stroke-width:4.11428;stroke-linecap:butt;stroke-linejoin:miter;stroke-miterlimit:4;stroke-dasharray:none;stroke-dashoffset:0;stroke-opacity:1"
         d="m 8984.5682,483.60222 v -164.5712 h -2.0572 c -45.5862,0 -82.2856,36.69942 -82.2856,82.2856 0,45.58619 36.6994,82.2856 82.2856,82.2856 z"
         id="path6202"
         inkscape:connector-curvature="0" />
      <path
         style="fill:url(#linearGradient7307);fill-opacity:1;stroke:none;stroke-width:4.11428;stroke-linecap:butt;stroke-linejoin:miter;stroke-miterlimit:4;stroke-dasharray:none;stroke-dashoffset:0;stroke-opacity:1"
         d="M 8984.5682,236.74542 V 72.174224 h -2.0572 c -45.5862,0 -82.2856,36.699416 -82.2856,82.285596 0,45.58619 36.6994,82.2856 82.2856,82.2856 z"
         id="path6204"
         inkscape:connector-curvature="0" />
      <path
         inkscape:connector-curvature="0"
         id="path6264"
         d="m 9024.6824,-1964.2891 v 84.3428 h -157.8855 c -2.2304,0 -4.4595,0.1111 -6.6857,0.1286 v -84.4714 z"
         style="fill:url(#linearGradient7269);fill-opacity:1;stroke:none;stroke-width:4.11428;stroke-linecap:butt;stroke-linejoin:miter;stroke-miterlimit:4;stroke-dasharray:none;stroke-dashoffset:0;stroke-opacity:1" />
      <path
         inkscape:connector-curvature="0"
         id="path6266"
         d="m 9024.6824,-1963.2605 v 88.0713 c -56.8219,6.0215 -111.834,17.7336 -164.5712,34.5857 v -99.1284 c 0,0 0,-0.1262 0,-0.1286 1.3174,-0.3196 2.666,-0.5864 3.9859,-0.9 4.09,-0.9718 8.2306,-1.9146 12.3428,-2.8286 1.2516,-0.2779 2.4744,-0.6275 3.7284,-0.9 3.6938,-0.8039 7.3456,-1.5573 11.0571,-2.3143 0.8969,-0.1826 1.8021,-0.3344 2.7002,-0.5142 6.1533,-1.2325 12.3132,-2.3697 18.5143,-3.4715 5.9533,-1.0578 12.0042,-2.0211 18,-2.9571 1.1659,-0.1826 2.3035,-0.465 3.4712,-0.6429 2.3904,-0.3632 4.803,-0.6848 7.2,-1.0285 4.7709,-0.6858 9.6035,-1.3207 14.3999,-1.9286 14.4465,-1.8259 28.921,-3.2625 43.5855,-4.3714 7.3325,-0.5545 14.7312,-1.0425 22.1142,-1.4143 1.1525,-0.058 2.3184,-0.075 3.4717,-0.1286 z"
         style="fill:url(#linearGradient7277);fill-opacity:1;stroke:none;stroke-width:4.11428;stroke-linecap:butt;stroke-linejoin:miter;stroke-miterlimit:4;stroke-dasharray:none;stroke-dashoffset:0;stroke-opacity:1" />
      <path
         inkscape:connector-curvature="0"
         id="path6268"
         d="m 9024.6824,-1915.432 v 106.0713 c -58.8169,26.0154 -113.9816,58.5845 -164.5712,96.9427 v -124.7141 c 6.4372,-3.9503 12.9941,-7.7871 19.5428,-11.5714 4.8907,-2.8263 9.8344,-5.6248 14.7859,-8.3571 1.679,-0.9267 3.328,-1.9128 5.0141,-2.8286 0.2551,-0.1376 0.518,-0.2484 0.7714,-0.3857 3.061,-1.6588 6.1735,-3.263 9.2571,-4.8857 3.0997,-1.6307 6.1353,-3.2917 9.2572,-4.8857 0.2551,-0.1308 0.5155,-0.2552 0.7714,-0.3857 5.9599,-3.0353 11.9602,-5.9714 18,-8.8715 0.8109,-0.3895 1.6305,-0.77 2.4426,-1.1571 5.4992,-2.6192 11.023,-5.2085 16.5859,-7.7143 3.5593,-1.6041 7.0864,-3.1999 10.6712,-4.7571 4.6051,-1.9994 9.2395,-3.9929 13.8857,-5.9143 0.214,-0.088 0.4295,-0.1691 0.6431,-0.2571 0.6031,-0.2488 1.1964,-0.524 1.8,-0.7715 6.4656,-2.6502 12.999,-5.0882 19.5428,-7.5857 7.1547,-2.7306 14.3543,-5.4259 21.6,-7.9714 z"
         style="fill:url(#linearGradient7285);fill-opacity:1;stroke:none;stroke-width:4.11428;stroke-linecap:butt;stroke-linejoin:miter;stroke-miterlimit:4;stroke-dasharray:none;stroke-dashoffset:0;stroke-opacity:1" />
      <path
         inkscape:connector-curvature="0"
         id="path6308"
         d="m 8860.1112,1942.0912 c 2.2263,0.016 4.4554,0.1288 6.6857,0.1288 h 157.8855 v 22.6286 c 0,34.1894 -27.5245,61.7139 -61.7142,61.7139 h -41.1428 c -34.1897,0 -61.7142,-27.5245 -61.7142,-61.7139 v -22.7572 z"
         style="fill:#6a6e79;fill-opacity:1;stroke:none;stroke-width:4.11428;stroke-linecap:butt;stroke-linejoin:miter;stroke-miterlimit:4;stroke-dasharray:none;stroke-dashoffset:0;stroke-opacity:1" />
      <path
         inkscape:connector-curvature="0"
         id="path6310"
         d="m 8860.1112,1902.877 c 52.7373,16.8521 107.7493,28.5642 164.5712,34.5857 v 15.0428 c 0,34.1897 -27.5245,61.7142 -61.7142,61.7142 h -41.1428 c -1.3087,0 -2.5689,-0.1769 -3.8571,-0.2592 -4.8277,-0.8278 -9.7286,-1.6642 -14.5288,-2.5714 -0.091,0 -0.1687,-0.1111 -0.2551,-0.1276 -25.0098,-7.8751 -43.0715,-31.0792 -43.0715,-58.7568 v -49.6285 z"
         style="fill:#6a6e79;fill-opacity:1;stroke:none;stroke-width:4.11428;stroke-linecap:butt;stroke-linejoin:miter;stroke-miterlimit:4;stroke-dasharray:none;stroke-dashoffset:0;stroke-opacity:1" />
      <path
         inkscape:connector-curvature="0"
         id="path6312"
         d="m 8860.4969,1774.6915 c 50.3629,38.1863 105.2791,70.5997 163.7998,96.557 -4.4582,29.747 -29.9149,52.457 -60.9428,52.457 h -41.1428 c -34.1897,0 -61.7142,-27.5245 -61.7142,-61.7142 z"
         style="fill:#6a6e79;fill-opacity:1;stroke:none;stroke-width:4.11428;stroke-linecap:butt;stroke-linejoin:miter;stroke-miterlimit:4;stroke-dasharray:none;stroke-dashoffset:0;stroke-opacity:1" />
      <path
         style="fill:url(#linearGradient7215);fill-opacity:1;stroke:none;stroke-width:4.11428;stroke-linecap:butt;stroke-linejoin:miter;stroke-miterlimit:4;stroke-dasharray:none;stroke-dashoffset:0;stroke-opacity:1"
         d="m 8572.1116,-1964.2891 c -14.4831,0 -28.8958,0.4597 -43.1999,1.1572 v 718.8418 c 0,34.1897 -27.5246,61.7142 -61.7142,61.7142 h -41.1428 c -34.1897,0 -61.7142,-27.5245 -61.7142,-61.7142 v -695.0561 c -27.9866,6.8606 -55.4605,15.0569 -82.2856,24.5571 v 670.499 c 0,34.1897 -27.5246,61.7142 -61.7142,61.7142 h -41.1428 c -34.1897,0 -61.7142,-27.5245 -61.7142,-61.7142 v -591.5563 c -246.0463,151.9438 -409.3709,423.9528 -409.3709,735.5561 v 267.42825 c 0,-45.58618 36.6994,-82.2856 82.2856,-82.2856 h 1069.7128 v 164.5712 H 7790.3984 c -45.5862,0 -82.2856,-36.69942 -82.2856,-82.2856 v 246.8568 c 0,-45.58618 36.6994,-82.2856 82.2856,-82.2856 h 1069.7128 v 164.5712 H 7790.3984 c -45.5862,0 -82.2856,-36.69942 -82.2856,-82.2856 v 246.8568 c 0,-45.58618 36.6994,-82.2856 82.2856,-82.2856 h 1069.7128 v 164.5712 H 7790.3984 c -45.5862,0 -82.2856,-36.69942 -82.2856,-82.2856 v 246.8568 c 0,-45.58618 36.6994,-82.2856 82.2856,-82.2856 h 1069.7128 c 0,41.09005 -102.857,164.574779 -164.5712,164.5712 h -905.1416 c -45.5862,0 -82.2856,-36.699419 -82.2856,-82.2856 v 246.8568 c 0,-45.58618 36.6994,-82.2856 82.2856,-82.2856 L 8695.54,72.150773 c 61.7142,-0.0036 164.5712,123.481147 164.5712,164.571197 l -1069.7128,0.12878 c -45.5862,0 -82.2856,-36.69942 -82.2856,-82.2856 v 246.8568 c 0,-45.58618 36.6994,-82.2856 82.2856,-82.2856 h 1069.7128 v 164.5712 H 7790.3984 c -45.5862,0 -82.2856,-36.69942 -82.2856,-82.2856 v 246.8568 c 0,-45.58618 36.6994,-82.2856 82.2856,-82.2856 h 1069.7128 v 164.5712 H 7790.3984 c -45.5862,0 -82.2856,-36.69942 -82.2856,-82.2856 v 246.8568 c 0,-45.58618 36.6994,-82.2856 82.2856,-82.2856 l 1069.7128,-0.12878 v 164.5712 l -1069.7128,0.12878 c -45.5862,0 -82.2856,-36.69942 -82.2856,-82.2856 v 267.42815 c 0,423.087 301.0271,773.2222 701.4848,848.8274 -25.0922,-7.8266 -43.2,-31.1492 -43.2,-58.8856 v -378.5138 c 0,-34.1896 27.5245,-61.7142 61.7142,-61.7142 h 41.1428 c 34.1897,0 61.7142,27.5246 61.7142,61.7142 v 378.5138 c 0,34.1897 -27.5245,61.7142 -61.7142,61.7142 h -41.1428 c -1.3087,0 -2.5689,-0.1769 -3.8571,-0.2592 48.0157,8.2129 97.4282,12.6 147.8569,12.6 h 102.857 c -34.1897,0 -61.7142,-27.5245 -61.7142,-61.7142 v -390.8566 c 0,-34.1897 27.5245,-61.7142 61.7142,-61.7142 h 41.1428 c 34.1897,0 61.7142,27.5245 61.7142,61.7142 v 390.8566 c 0,34.1897 -27.5245,61.7142 -61.7142,61.7142 h 205.714 c -34.1897,0 -61.7142,-27.5245 -61.7142,-61.7142 v -390.8566 c 0,-34.1897 27.5245,-61.7142 61.7142,-61.7142 h 41.1428 c 34.1897,0 61.7142,27.5245 61.7142,61.7142 v 390.8566 c 0,34.1897 -27.5245,61.7142 -61.7142,61.7142 h 205.714 c -34.1897,0 -61.7142,-27.5245 -61.7142,-61.7142 v -390.8566 c 0,-34.1897 27.5245,-61.7142 61.7142,-61.7142 h 41.1428 c 34.1897,0 61.7142,27.5245 61.7142,61.7142 v 390.8566 c 0,34.1897 -27.5245,61.7142 -61.7142,61.7142 h 102.857 c 50.4287,0 99.8412,-4.3871 147.857,-12.6 -1.2882,0.078 -2.5484,0.2592 -3.8572,0.2592 h -41.1428 c -34.1897,0 -61.7142,-27.5245 -61.7142,-61.7142 v -378.5138 c 0,-34.1896 27.5245,-61.7142 61.7142,-61.7142 h 41.1428 c 34.1897,0 61.7142,27.5246 61.7142,61.7142 v 378.5138 c 0,27.7364 -18.1078,51.059 -43.1999,58.8856 400.4577,-75.6052 701.4849,-425.7404 701.4849,-848.8274 V 895.13555 c 0,45.58618 -36.7,82.2856 -82.286,82.2856 l -1069.7126,-0.12878 v -164.5712 l 1069.7126,0.12878 c 45.586,0 82.286,36.69942 82.286,82.2856 v -246.8568 c 0,45.58618 -36.7,82.2856 -82.286,82.2856 H 9024.6824 v -164.5712 h 1069.7126 c 45.586,0 82.286,36.69942 82.286,82.2856 v -246.8568 c 0,45.58618 -36.7,82.2856 -82.286,82.2856 H 9024.6824 v -164.5712 h 1069.7126 c 45.586,0 82.286,36.69942 82.286,82.2856 v -246.8568 c 0,45.58618 -36.7,82.2856 -82.286,82.2856 l -1069.7126,-0.12878 c 0,-41.09005 102.857,-164.574776 164.5712,-164.571197 l 905.1414,0.128777 c 45.586,0 82.286,36.69942 82.286,82.2856 v -246.8568 c 0,45.586181 -36.7,82.2856 -82.286,82.2856 h -905.1414 c -61.7142,0.0036 -164.5712,-123.48115 -164.5712,-164.5712 h 1069.7126 c 45.586,0 82.286,36.69942 82.286,82.2856 v -246.8568 c 0,45.58618 -36.7,82.2856 -82.286,82.2856 H 9024.6824 v -164.5712 h 1069.7126 c 45.586,0 82.286,36.69942 82.286,82.2856 v -246.8568 c 0,45.58618 -36.7,82.2856 -82.286,82.2856 H 9024.6824 v -164.5712 h 1069.7126 c 45.586,0 82.286,36.69942 82.286,82.2856 v -246.8568 c 0,45.58618 -36.7,82.2856 -82.286,82.2856 H 9024.6824 v -164.5712 h 1069.7126 c 45.586,0 82.286,36.69942 82.286,82.2856 v -267.42825 c 0,-312.4756 -164.229,-585.1477 -411.4282,-736.8418 v 592.842 c 0,34.1897 -27.5245,61.7142 -61.7142,61.7142 h -41.1428 c -34.1897,0 -61.7142,-27.5245 -61.7142,-61.7142 v -671.1419 c -26.8251,-9.4242 -54.3052,-17.5127 -82.2856,-24.2999 v 695.4418 c 0,34.1897 -27.5245,61.7142 -61.7142,61.7142 h -41.1428 c -34.1897,0 -61.7142,-27.5245 -61.7142,-61.7142 v -718.9704 c -13.6289,-0.6328 -27.3517,-1.0286 -41.1428,-1.0286 h -41.1428 v 719.999 c 0,34.1897 -27.5245,61.7142 -61.7142,61.7142 h -41.1428 c -34.1897,0 -61.7142,-27.5245 -61.7142,-61.7142 v -719.999 h -82.2856 v 719.999 c 0,34.1897 -27.5245,61.7142 -61.7142,61.7142 h -41.1428 c -34.1897,0 -61.7142,-27.5245 -61.7142,-61.7142 v -719.999 h -84.3427 v 719.999 c 0,34.1897 -27.5246,61.7142 -61.7142,61.7142 h -41.1428 c -34.1897,0 -61.7142,-27.5245 -61.7142,-61.7142 v -719.999 z m 929.9557,20.7 c 4.1122,0.914 8.2528,1.8568 12.3428,2.8286 -4.1098,-0.9762 -8.2096,-1.911 -12.3428,-2.8286 z m 142.2002,44.7428 c 4.6462,1.9214 9.2806,3.9149 13.8857,5.9143 -4.6224,-2.0079 -9.2214,-3.9851 -13.8857,-5.9143 z M 8181.255,1512.2775 h 41.1428 c 34.1897,0 61.7142,27.5246 61.7142,61.7142 v 287.9996 c 0,34.1897 -27.5245,61.7142 -61.7142,61.7142 h -41.1428 c -34.1897,0 -61.7142,-27.5245 -61.7142,-61.7142 v -287.9996 c 0,-34.1896 27.5245,-61.7142 61.7142,-61.7142 z m 1481.1408,0 h 41.1428 c 34.1897,0 61.7142,27.5246 61.7142,61.7142 v 287.9996 c 0,34.1897 -27.5245,61.7142 -61.7142,61.7142 h -41.1428 c -34.1897,0 -61.7142,-27.5245 -61.7142,-61.7142 v -287.9996 c 0,-34.1896 27.5245,-61.7142 61.7142,-61.7142 z"
         id="path6337"
         inkscape:connector-curvature="0" />
      <path
         style="color:#000000;font-style:normal;font-variant:normal;font-weight:normal;font-stretch:normal;font-size:medium;line-height:normal;font-family:Sans;-inkscape-font-specification:Sans;text-indent:0;text-align:start;text-decoration:none;text-decoration-line:none;letter-spacing:normal;word-spacing:normal;text-transform:none;writing-mode:lr-tb;direction:ltr;baseline-shift:baseline;text-anchor:start;display:inline;overflow:visible;visibility:visible;fill:url(#linearGradient7564);fill-opacity:1;stroke:none;stroke-width:4.11428;stroke-miterlimit:4;stroke-dasharray:none;marker:none;enable-background:accumulate"
         d="m 7604.2272,-134.51577 a 72.0071,72.0071 0 0 0 -70.9713,73.028475 V 1831.0815 c 0,149.8327 62.1075,339.9816 191.4424,501.2996 129.3353,161.3176 332.1808,290.6994 600.5565,290.6994 h 617.142 617.142 c 268.3757,0 471.2212,-129.3818 600.5562,-290.6994 129.335,-161.318 191.443,-351.4669 191.443,-501.2996 V -61.487295 a 72.0071,72.0071 0 0 0 -73.029,-73.028475 72.0071,72.0071 0 0 0 -70.971,73.028475 V 1831.0815 c 0,107.1619 -52.034,276.866 -159.814,411.2997 -107.7805,134.4329 -265.0233,236.6995 -488.1852,236.6995 h -617.142 -617.142 c -223.1618,0 -380.4047,-102.267 -488.1848,-236.6995 -107.7806,-134.4337 -159.8143,-304.1378 -159.8143,-411.2997 V -61.487295 a 72.0071,72.0071 0 0 0 -73.0285,-73.028475 z"
         id="path6060"
         inkscape:connector-curvature="0" />
      <rect
         style="fill:url(#linearGradient7597);fill-opacity:1;stroke:none;stroke-width:2.27119;stroke-linecap:round;stroke-linejoin:miter;stroke-miterlimit:4;stroke-dasharray:none;stroke-dashoffset:0;stroke-opacity:1"
         id="rect6832"
         width="411.42801"
         height="714.64435"
         x="8736.6826"
         y="2623.0803"
         ry="0" />
      <circle
         style="fill:#43425c;fill-opacity:1;stroke:none;stroke-width:4.11428;stroke-linecap:butt;stroke-linejoin:miter;stroke-miterlimit:4;stroke-dasharray:none;stroke-dashoffset:0;stroke-opacity:1"
         id="path8769"
         cx="8942.3965"
         cy="31.084267"
         r="83.460991" />
      <path
         style="opacity:0.7;fill:#ffffff;fill-opacity:1;stroke:none;stroke-width:1;stroke-linecap:butt;stroke-linejoin:miter;stroke-miterlimit:4;stroke-dasharray:none;stroke-dashoffset:0;stroke-opacity:1;filter:url(#filter7454)"
         d="m 6773.7734,512.50391 a 20.285686,20.285686 0 0 1 6.5118,14.85742 20.285686,20.285686 0 0 1 -20.2852,20.28711 20.285686,20.285686 0 0 1 -12.123,-4.05274 20.285686,20.285686 0 0 0 13.7714,5.42578 20.285686,20.285686 0 0 0 20.2852,-20.28515 20.285686,20.285686 0 0 0 -8.1602,-16.23242 z"
         id="circle7451"
         inkscape:connector-curvature="0"
         transform="matrix(4.11428,0,0,4.11428,-18890.318,-2138.6317)" />
      <path
         style="opacity:0.5;fill:#000000;fill-opacity:1;stroke:none;stroke-width:1;stroke-linecap:butt;stroke-linejoin:miter;stroke-miterlimit:4;stroke-dasharray:none;stroke-dashoffset:0;stroke-opacity:1;filter:url(#filter7467)"
         d="M 6760,507.07617 A 20.285686,20.285686 0 0 0 6739.7148,527.36133 20.285686,20.285686 0 0 0 6760,547.64844 20.285686,20.285686 0 0 0 6780.2852,527.36133 20.285686,20.285686 0 0 0 6760,507.07617 Z m 0,1.16211 a 19.123634,19.123634 0 0 1 19.123,19.12305 19.123634,19.123634 0 0 1 -19.123,19.125 19.123634,19.123634 0 0 1 -19.123,-19.125 19.123634,19.123634 0 0 1 19.123,-19.12305 z"
         id="circle7458"
         clip-path="url(#clipPath7473)"
         inkscape:connector-curvature="0"
         transform="matrix(4.11428,0,0,4.11428,-18870.136,-2138.6317)" />
      <path
         style="opacity:0.3;fill:url(#linearGradient7554);fill-opacity:1;stroke:none;stroke-width:4.11428;stroke-linecap:butt;stroke-linejoin:miter;stroke-miterlimit:4;stroke-dasharray:none;stroke-dashoffset:0;stroke-opacity:1"
         d="m 8572.1047,-1964.2891 c -14.4901,0 -28.8892,0.3626 -43.1999,1.0608 v -0.032 c -1.1533,0.053 -2.3192,0.07 -3.4717,0.1285 -7.3826,0.3719 -14.7817,0.8599 -22.1142,1.4143 -14.6641,1.1089 -29.139,2.5456 -43.5855,4.3714 -4.7964,0.6079 -9.629,1.2429 -14.3999,1.9286 -2.397,0.3438 -4.8096,0.6653 -7.2,1.0286 -1.1677,0.1779 -2.3053,0.4603 -3.4712,0.6428 -5.9962,0.9361 -12.0467,1.8994 -18,2.9572 -6.2015,1.1017 -12.361,2.239 -18.5143,3.4714 -0.8985,0.1798 -1.8033,0.3317 -2.7002,0.5143 -3.7115,0.757 -7.3633,1.5103 -11.0571,2.3143 -1.254,0.2725 -2.4772,0.6221 -3.7284,0.9 -4.1122,0.914 -8.2532,1.8568 -12.3428,2.8285 -1.3203,0.3136 -2.6685,0.5805 -3.9859,0.9 v 0.1286 0.3857 c -1.561,0.3827 -3.103,0.8144 -4.6607,1.2054 -3.2091,0.8056 -6.408,1.6338 -9.6027,2.475 -3.7317,0.9817 -7.4576,1.9757 -11.1695,3.0053 -3.1585,0.8773 -6.3067,1.78 -9.45,2.692 -3.7955,1.0992 -7.5814,2.2175 -11.3546,3.3669 -2.8019,0.855 -5.5913,1.7372 -8.3812,2.6197 -4.183,1.3213 -8.3574,2.6587 -12.5116,4.0419 -2.2587,0.7529 -4.5076,1.5274 -6.7581,2.2983 -2.7956,0.9571 -5.6151,1.8674 -8.3972,2.8526 v -0.6428 c -7.2457,2.5455 -14.4453,5.2407 -21.6,7.9714 -6.5438,2.4975 -13.0772,4.9355 -19.5428,7.5857 -0.6036,0.2474 -1.1969,0.5226 -1.8,0.7714 -0.214,0.088 -0.4291,0.169 -0.6431,0.2572 -4.6462,1.9213 -9.2802,3.9148 -13.8857,5.9142 -3.5843,1.5573 -7.1119,3.153 -10.6712,4.7572 -5.5629,2.5058 -11.0867,5.0951 -16.5859,7.7143 -0.8121,0.3871 -1.6317,0.7675 -2.4426,1.1571 -6.0398,2.9 -12.0401,5.8362 -18,8.8714 -0.2551,0.1305 -0.5163,0.255 -0.7714,0.3857 -3.1219,1.594 -6.1575,3.255 -9.2572,4.8857 -3.0836,1.6228 -6.1961,3.227 -9.2571,4.8857 -0.2551,0.1374 -0.5163,0.2482 -0.7714,0.3858 -1.6861,0.9157 -3.3355,1.9019 -5.0141,2.8285 -4.9519,2.7323 -9.8952,5.5309 -14.7859,8.3572 -6.5487,3.7842 -13.1056,7.6211 -19.5428,11.5714 v 1.2857 c -0.5011,0.3093 -0.9944,0.6298 -1.4947,0.9402 -6.7693,4.1996 -13.4797,8.4851 -20.1213,12.8651 -0.5571,0.3673 -1.1154,0.7324 -1.6717,1.1009 -3.5465,2.3509 -7.0732,4.726 -10.5827,7.1277 -0.3168,0.2165 -0.6324,0.4339 -0.9484,0.6509 -6.821,4.6811 -13.5652,9.4573 -20.2418,14.3276 -0.5452,0.3975 -1.0874,0.7987 -1.6313,1.1973 -10.0821,7.3909 -19.9917,15.0013 -29.7323,22.8134 -1.0639,0.8534 -2.1299,1.705 -3.1898,2.5634 -9.4287,7.6356 -18.6957,15.4604 -27.7878,23.4803 -1.1825,1.0431 -2.3587,2.0926 -3.5354,3.142 -8.9062,7.9429 -17.6454,16.0701 -26.2125,24.3723 -1.3063,1.2657 -2.6072,2.535 -3.9053,3.8089 -4.5368,4.452 -9.0226,8.949 -13.4599,13.5 -1.2112,1.2421 -2.4282,2.4791 -3.632,3.7285 -2.4805,2.5748 -4.9368,5.1731 -7.3852,7.7786 -1.4573,1.5507 -2.9092,3.1072 -4.3554,4.6687 -3.867,4.1769 -7.69,8.3949 -11.4747,12.6482 -1.5453,1.7363 -3.0972,3.4664 -4.6285,5.2152 -2.3106,2.6391 -4.6002,5.2958 -6.8787,7.9634 -1.4425,1.6882 -2.8697,3.3871 -4.299,5.0866 -3.2729,3.8918 -6.5105,7.8139 -9.7151,11.7643 -1.93,2.3785 -3.8567,4.7603 -5.7616,7.1598 -1.8597,2.3425 -3.7094,4.6929 -5.5448,7.0553 -1.9485,2.5076 -3.8724,5.04 -5.7938,7.5696 -2.696,3.5502 -5.3695,7.1184 -8.0117,10.7117 -1.8572,2.5256 -3.7061,5.055 -5.5366,7.6017 -1.6658,2.3187 -3.3301,4.639 -4.9737,6.975 -2.9269,4.1584 -5.8242,8.3394 -8.6787,12.5518 -1.4758,2.1782 -2.9154,4.3807 -4.3714,6.5732 -1.6939,2.5495 -3.3795,5.1055 -5.0466,7.6741 -1.5959,2.4594 -3.1935,4.9161 -4.7652,7.3928 -2.6746,4.214 -5.3119,8.449 -7.915,12.7125 -1.3676,2.2402 -2.7105,4.4964 -4.0579,6.75 -1.8008,3.0106 -3.5873,6.0298 -5.3519,9.0642 -1.2762,2.1952 -2.5516,4.3899 -3.809,6.5974 -2.5792,4.5268 -5.1185,9.0827 -7.618,13.6607 -1.1915,2.183 -2.3624,4.3787 -3.5354,6.5732 -1.7189,3.2147 -3.4156,6.4439 -5.0947,9.683 -1.094,2.1103 -2.2015,4.2116 -3.2787,6.3321 -2.4093,4.7432 -4.7635,9.5179 -7.0876,14.3116 -1.0385,2.1426 -2.0642,4.2921 -3.0857,6.4447 -1.7359,3.6578 -3.4408,7.3307 -5.1264,11.0169 -0.8574,1.8751 -1.7272,3.7426 -2.5715,5.625 -2.3146,5.1589 -4.5664,10.3525 -6.7823,15.5651 -0.7295,1.7165 -1.4512,3.4368 -2.1695,5.159 -2.032,4.8684 -4.0254,9.7595 -5.9706,14.6732 -0.321,0.8094 -0.6624,1.608 -0.9805,2.4187 -2.1497,5.4794 -4.2192,10.9954 -6.2599,16.5295 -0.6928,1.8795 -1.3766,3.7633 -2.0571,5.649 -2.0098,5.5705 -3.9917,11.1548 -5.89,16.7786 -0.2181,0.6407 -0.4201,1.2872 -0.6348,1.9286 -1.7091,5.1026 -3.3581,10.2352 -4.9742,15.3803 -0.6077,1.9346 -1.2137,3.8693 -1.8078,5.8098 -1.7297,5.6455 -3.4136,11.3088 -5.0305,17.0036 -0.3086,1.0874 -0.6036,2.1814 -0.9081,3.2705 -1.4667,5.245 -2.8808,10.5128 -4.2508,15.7982 -0.3498,1.3439 -0.6945,2.6875 -1.0368,4.0339 -1.5244,6.0002 -2.9969,12.022 -4.3953,18.0723 -0.3004,1.2988 -0.5818,2.6043 -0.876,3.9054 -1.1482,5.0735 -2.2517,10.1602 -3.3107,15.2678 -0.325,1.5747 -0.6546,3.1471 -0.9722,4.725 -1.2076,5.9929 -2.3641,12.0102 -3.4474,18.0482 -0.2551,1.4221 -0.4912,2.8504 -0.7393,4.275 -0.9014,5.1729 -1.7617,10.3604 -2.5714,15.5651 -0.2304,1.4764 -0.4691,2.9489 -0.6912,4.4277 -0.9315,6.1997 -1.7873,12.424 -2.5875,18.6669 -0.1646,1.2761 -0.3168,2.5553 -0.474,3.8331 -0.6957,5.6273 -1.3408,11.2702 -1.9287,16.9312 -0.1194,1.1581 -0.2551,2.312 -0.3703,3.4714 -0.6262,6.2728 -1.1792,12.5715 -1.6717,18.8839 -0.1275,1.6343 -0.2345,3.2729 -0.3538,4.9098 -0.4118,5.6946 -0.7829,11.3988 -1.0849,17.1241 -0.045,0.8852 -0.107,1.766 -0.1523,2.6518 -0.3209,6.4635 -0.5513,12.9534 -0.7311,19.4545 -0.041,1.5524 -0.078,3.1062 -0.111,4.6607 -0.1482,6.6182 -0.2469,13.2492 -0.2469,19.9044 v 1254.75093 0.1045 246.75234 0.1045 246.75234 0.1045 246.75234 0.10451 267.42824 c 0,7.1184 0.095,14.2104 0.2674,21.2865 0.053,2.2024 0.1564,4.3911 0.2263,6.5893 0.1481,4.7531 0.3045,9.5063 0.5303,14.2393 0.1317,2.8028 0.3086,5.5937 0.4662,8.3892 0.2427,4.2338 0.5015,8.4635 0.8035,12.6804 0.2057,2.8926 0.4398,5.778 0.6752,8.6625 0.3332,4.0635 0.6895,8.1189 1.0767,12.166 0.2756,2.886 0.5636,5.769 0.8681,8.6464 0.4456,4.2187 0.9245,8.4242 1.4301,12.6241 0.3168,2.6327 0.632,5.266 0.9722,7.8911 0.546,4.2074 1.1462,8.3961 1.7519,12.5839 0.4032,2.7815 0.785,5.5684 1.2133,8.3411 0.6875,4.4465 1.4317,8.8756 2.1859,13.2991 0.3826,2.2403 0.734,4.4916 1.1331,6.7259 1.1952,6.6922 2.4694,13.3559 3.8168,19.9928 0.2674,1.3121 0.5636,2.6115 0.8356,3.9214 1.1211,5.3916 2.2756,10.7659 3.4959,16.1196 0.5011,2.1985 1.0409,4.3812 1.5589,6.5732 1.0393,4.4004 2.0921,8.7968 3.198,13.1705 0.6418,2.5384 1.3125,5.0646 1.9769,7.5938 1.0344,3.9394 2.0856,7.8715 3.1742,11.7883 0.7764,2.7951 1.5745,5.5818 2.3785,8.3652 1.0861,3.7607 2.1912,7.5109 3.3268,11.25 0.8039,2.6482 1.614,5.294 2.4426,7.9312 1.2742,4.0546 2.59,8.0897 3.9218,12.1179 0.7512,2.2725 1.4881,4.5503 2.2579,6.8143 1.5712,4.6223 3.1988,9.219 4.8454,13.8053 0.613,1.7066 1.2009,3.4253 1.8242,5.1268 4.6541,12.709 9.6011,25.2778 14.8258,37.6955 0.5221,1.2406 1.0714,2.4668 1.5993,3.7044 2.0596,4.8319 4.1389,9.6465 6.2837,14.4321 0.95,2.1201 1.9341,4.2213 2.901,6.3322 1.8004,3.9313 3.6152,7.8572 5.4724,11.7562 1.1154,2.342 2.255,4.669 3.391,6.9991 1.7345,3.5581 3.4815,7.109 5.2634,10.6393 1.2598,2.4961 2.5335,4.9831 3.8168,7.4652 1.8189,3.5181 3.6707,7.0132 5.5366,10.5026 1.2293,2.2992 2.455,4.6 3.7045,6.8866 1.9793,3.6221 3.9974,7.218 6.027,10.808 1.2445,2.2024 2.4727,4.4152 3.7366,6.6054 2.2813,3.9545 4.6166,7.8741 6.9589,11.7884 1.0224,1.7087 2.0197,3.4338 3.0532,5.1347 3.3897,5.5764 6.8305,11.1181 10.342,16.6099 0.6834,1.0686 1.3935,2.1168 2.0814,3.1821 2.9249,4.5303 5.8806,9.0371 8.8873,13.508 1.1039,1.6413 2.2361,3.2606 3.3511,4.8938 2.578,3.7768 5.1663,7.5489 7.8027,11.2821 1.4894,2.1094 3.008,4.1966 4.5159,6.2919 2.271,3.1556 4.5499,6.3027 6.8626,9.4259 1.6704,2.2561 3.3626,4.4949 5.0544,6.734 2.392,3.1652 4.798,6.3191 7.232,9.4499 1.4828,1.9072 2.9697,3.8111 4.4682,5.7054 2.7034,3.4176 5.4419,6.806 8.196,10.1812 1.4647,1.7949 2.9253,3.5931 4.4039,5.3759 2.6805,3.2314 5.3976,6.4275 8.1241,9.6187 1.6041,1.878 3.1931,3.7692 4.8133,5.6331 3.2416,3.7289 6.5314,7.4172 9.8356,11.0892 1.0244,1.1383 2.0234,2.2985 3.0536,3.4313 4.3336,4.7646 8.7239,9.477 13.1624,14.1428 1.6729,1.7586 3.3832,3.4789 5.0704,5.2232 2.8825,2.9792 5.7621,5.9582 8.6869,8.8956 1.9099,1.9185 3.8498,3.8048 5.7777,5.7053 2.6957,2.6571 5.3934,5.3097 8.1241,7.9312 2.118,2.034 4.2574,4.0466 6.3965,6.059 2.6339,2.4777 5.274,4.9481 7.9393,7.3928 2.2258,2.0422 4.4701,4.0641 6.7178,6.083 2.5463,2.2872 5.1083,4.5572 7.6822,6.8143 2.3879,2.0947 4.7799,4.1833 7.1917,6.2518 2.6615,2.2827 5.3461,4.5396 8.0356,6.7902 2.2197,1.8575 4.4311,3.7252 6.6697,5.5606 3.0705,2.517 6.1755,4.9901 9.2814,7.4652 2.0629,1.6443 4.1089,3.3083 6.1874,4.934 3.1615,2.4726 6.3657,4.8993 9.5625,7.3285 4.5438,3.453 9.1271,6.8572 13.7408,10.2214 2.4019,1.7507 4.7878,3.5209 7.2082,5.2473 2.9767,2.1235 5.9871,4.1975 8.9922,6.2839 2.3596,1.6384 4.7105,3.2866 7.0873,4.9018 3.0264,2.057 6.0825,4.0718 9.1366,6.0911 2.3447,1.5501 4.6865,3.1009 7.0473,4.6286 3.11,2.0128 6.2401,3.9968 9.3777,5.9705 2.3661,1.4882 4.738,2.9699 7.1197,4.4357 3.159,1.9445 6.3282,3.8729 9.5143,5.7777 2.341,1.3995 4.6915,2.7846 7.0474,4.1625 3.3757,1.9749 6.7597,3.9358 10.1651,5.866 2.0823,1.1801 4.1826,2.3323 6.2755,3.4956 3.5502,1.9733 7.0988,3.9495 10.6799,5.8741 1.8893,1.0152 3.7995,1.9957 5.697,2.9973 14.4,7.6008 29.0271,14.8269 43.899,21.624 0.4114,0.1881 0.8179,0.3835 1.2297,0.5706 4.2213,1.9212 8.4787,3.778 12.7366,5.633 1.8695,0.8144 3.7325,1.6414 5.609,2.4429 3.7658,1.6089 7.5526,3.1761 11.3464,4.733 2.2925,0.9406 4.5837,1.883 6.8865,2.8045 3.9114,1.5658 7.8401,3.0942 11.7804,4.6044 2.0588,0.7891 4.1208,1.5727 6.1874,2.3465 4.0069,1.5005 8.0262,2.9769 12.0615,4.4198 2.127,0.7604 4.2615,1.5059 6.3964,2.2501 4.1748,1.4553 8.3557,2.8977 12.5597,4.2908 1.5466,0.5123 3.1026,0.999 4.6528,1.503 21.728,7.0625 43.8377,13.2949 66.2947,18.6508 1.1104,0.2633 2.2147,0.5431 3.3268,0.8035 4.9017,1.1483 9.8273,2.2296 14.7616,3.2948 1.5058,0.325 3.0067,0.6628 4.5158,0.98 4.9174,1.0339 9.8537,2.0147 14.802,2.9651 0.8755,0.1687 1.7432,0.358 2.6195,0.5226 -0.049,0 -0.095,-0.041 -0.144,-0.058 0.091,0 0.1811,0.041 0.2716,0.058 0,0 0.041,0 0.041,0 28.426,5.3629 57.3502,9.3365 86.7052,11.8606 0.4423,0.041 0.8837,0.082 1.326,0.1193 5.2124,0.4398 10.4388,0.8332 15.6775,1.1812 1.8461,0.1235 3.6958,0.2345 5.5448,0.3456 4.4237,0.2675 8.8494,0.5155 13.2912,0.7151 3.0417,0.1399 6.0945,0.2386 9.1444,0.3456 3.4597,0.1193 6.912,0.2592 10.3824,0.3374 6.7408,0.1563 13.4952,0.255 20.2739,0.255 h 740.5704 c 6.7787,0 13.5331,-0.099 20.2739,-0.255 3.4704,-0.078 6.9227,-0.2181 10.3824,-0.3374 3.0499,-0.107 6.1027,-0.2057 9.1444,-0.3456 4.4418,-0.1975 8.8675,-0.4493 13.2912,-0.7151 1.849,-0.1152 3.6987,-0.2221 5.5448,-0.3456 5.2387,-0.3497 10.4651,-0.7414 15.6775,-1.1812 0.4423,-0.041 0.8837,-0.082 1.326,-0.1193 29.4632,-2.5332 58.4915,-6.5322 87.0187,-11.9252 -0.049,0 -0.095,0.041 -0.144,0.058 0.8763,-0.1646 1.744,-0.3539 2.6195,-0.5226 4.9483,-0.9504 9.8846,-1.9312 14.802,-2.9651 1.5091,-0.3168 3.01,-0.655 4.5158,-0.98 4.9343,-1.0652 9.8599,-2.1465 14.7616,-3.2948 1.1121,-0.2592 2.2164,-0.5389 3.3269,-0.8035 22.4569,-5.3559 44.5667,-11.5883 66.2946,-18.6508 1.5502,-0.504 3.1063,-0.9907 4.6528,-1.503 4.204,-1.3931 8.3849,-2.8355 12.5597,-4.2908 2.1349,-0.7442 4.2694,-1.4897 6.3965,-2.2501 4.0352,-1.4429 8.0545,-2.9193 12.0614,-4.4198 2.0666,-0.7738 4.1287,-1.5574 6.1874,-2.3465 3.9403,-1.5101 7.869,-3.0386 11.7805,-4.6044 2.3027,-0.9215 4.594,-1.8639 6.8864,-2.8045 3.7938,-1.5569 7.5806,-3.1241 11.3464,-4.733 1.8765,-0.8015 3.7395,-1.6285 5.609,-2.4429 4.2953,-1.8713 8.591,-3.7425 12.8493,-5.6812 0.3744,-0.1703 0.7426,-0.3514 1.117,-0.5223 14.8719,-6.7972 29.499,-14.0233 43.899,-21.6241 1.8975,-1.0016 3.8078,-1.9821 5.697,-2.9973 3.5811,-1.9246 7.1297,-3.9008 10.6799,-5.8741 2.0929,-1.1633 4.1933,-2.3155 6.2755,-3.4956 3.4054,-1.9302 6.7894,-3.8911 10.1651,-5.866 2.3559,-1.3779 4.7064,-2.763 7.0474,-4.1625 3.1861,-1.9048 6.3553,-3.8332 9.5143,-5.7777 2.3817,-1.4658 4.7536,-2.9474 7.1197,-4.4357 3.1376,-1.9737 6.2677,-3.9577 9.3777,-5.9705 2.3608,-1.5277 4.7026,-3.0785 7.0474,-4.6286 3.054,-2.0193 6.1101,-4.0341 9.1365,-6.0911 2.3769,-1.6152 4.7278,-3.2634 7.0873,-4.9018 3.0051,-2.0864 6.0155,-4.1604 8.9922,-6.2839 2.4204,-1.7263 4.8063,-3.4966 7.2082,-5.2473 4.6137,-3.3642 9.1971,-6.7684 13.7409,-10.2214 3.1968,-2.4292 6.401,-4.8559 9.5624,-7.3285 2.0785,-1.6257 4.1245,-3.2897 6.1874,-4.9339 3.1059,-2.4752 6.211,-4.9483 9.2814,-7.4652 2.2386,-1.8355 4.45,-3.7032 6.6697,-5.5607 2.6895,-2.2506 5.3741,-4.5075 8.0356,-6.7902 2.4118,-2.0685 4.8038,-4.1571 7.1918,-6.2518 2.5739,-2.2571 5.1358,-4.527 7.6821,-6.8143 2.2477,-2.0189 4.492,-4.0408 6.7178,-6.083 2.6653,-2.4447 5.3054,-4.9151 7.9394,-7.3928 2.139,-2.0124 4.2784,-4.025 6.3964,-6.059 2.7307,-2.6215 5.4284,-5.2741 8.1241,-7.9312 1.928,-1.9005 3.8678,-3.7868 5.7777,-5.7053 2.9248,-2.9373 5.8044,-5.9164 8.6869,-8.8956 1.6872,-1.7443 3.3975,-3.4646 5.0704,-5.2232 4.4385,-4.6658 8.8288,-9.3782 13.1624,-14.1428 1.0302,-1.1327 2.0292,-2.293 3.0536,-3.4313 3.3042,-3.672 6.594,-7.3603 9.8356,-11.0892 1.6202,-1.8639 3.2092,-3.7551 4.8133,-5.6331 2.7266,-3.1912 5.4436,-6.3873 8.1241,-9.6187 1.4787,-1.7827 2.9392,-3.581 4.4039,-5.3759 2.7541,-3.3752 5.4926,-6.7636 8.1961,-10.1812 1.4984,-1.8943 2.9853,-3.7982 4.4681,-5.7054 2.434,-3.1308 4.8404,-6.2847 7.2324,-9.4499 1.691,-2.2391 3.384,-4.4779 5.054,-6.734 2.313,-3.1231 4.592,-6.2703 6.863,-9.4259 1.508,-2.0953 3.026,-4.1824 4.515,-6.2919 2.637,-3.7332 5.225,-7.5053 7.803,-11.2821 1.115,-1.6332 2.247,-3.2525 3.351,-4.8938 3.007,-4.4709 5.963,-8.9777 8.888,-13.508 0.699,-1.0834 1.418,-2.1516 2.113,-3.2384 3.499,-5.4739 6.931,-10.9956 10.31,-16.5535 1.034,-1.701 2.031,-3.4261 3.053,-5.1348 2.342,-3.9143 4.678,-7.8339 6.959,-11.7884 1.264,-2.1902 2.492,-4.403 3.737,-6.6054 2.029,-3.59 4.047,-7.1859 6.027,-10.808 1.249,-2.2866 2.475,-4.5874 3.704,-6.8866 1.866,-3.4894 3.718,-6.9845 5.537,-10.5026 1.283,-2.4821 2.557,-4.9691 3.817,-7.4652 1.781,-3.5303 3.528,-7.0812 5.263,-10.6393 1.136,-2.3301 2.276,-4.6571 3.391,-6.9991 1.857,-3.8989 3.672,-7.8249 5.472,-11.7562 0.967,-2.1109 1.951,-4.2121 2.901,-6.3322 2.145,-4.7856 4.225,-9.6002 6.284,-14.4321 0.528,-1.2376 1.077,-2.4638 1.599,-3.7044 5.225,-12.4177 10.172,-24.9865 14.826,-37.6955 0.623,-1.7015 1.211,-3.4202 1.824,-5.1268 1.647,-4.5863 3.275,-9.183 4.846,-13.8053 0.77,-2.264 1.506,-4.5418 2.258,-6.8143 1.332,-4.0282 2.647,-8.0632 3.921,-12.1179 0.829,-2.6372 1.639,-5.283 2.443,-7.9312 1.136,-3.739 2.241,-7.4893 3.327,-11.25 0.804,-2.7833 1.602,-5.5701 2.378,-8.3651 1.089,-3.9169 2.14,-7.849 3.175,-11.7884 0.664,-2.5292 1.335,-5.0554 1.976,-7.5938 1.106,-4.3737 2.159,-8.7701 3.198,-13.1705 0.518,-2.192 1.058,-4.3747 1.559,-6.5732 1.221,-5.3537 2.375,-10.7279 3.496,-16.1196 0.272,-1.3099 0.569,-2.6093 0.836,-3.9214 1.347,-6.6369 2.622,-13.3006 3.817,-19.9928 0.399,-2.2343 0.751,-4.4856 1.133,-6.7259 0.754,-4.4235 1.498,-8.8526 2.186,-13.2991 0.428,-2.7727 0.811,-5.5596 1.213,-8.3411 0.606,-4.1878 1.206,-8.3765 1.752,-12.5839 0.341,-2.6251 0.655,-5.2584 0.972,-7.8911 0.506,-4.1999 0.985,-8.4054 1.43,-12.6241 0.305,-2.8774 0.592,-5.7604 0.868,-8.6464 0.387,-4.0471 0.745,-8.1025 1.077,-12.166 0.235,-2.8845 0.468,-5.7699 0.675,-8.6625 0.301,-4.2169 0.562,-8.4465 0.804,-12.6803 0.16,-2.7956 0.333,-5.5865 0.466,-8.3893 0.226,-4.733 0.382,-9.4862 0.53,-14.2393 0.07,-2.1982 0.173,-4.3869 0.226,-6.5893 0.169,-7.0761 0.268,-14.1681 0.268,-21.2865 v -267.42824 -0.1045 -246.75234 -0.1045 -246.75234 -0.1045 -246.75234 -0.1045 -1254.75094 c 0,-6.6123 -0.103,-13.2 -0.247,-19.7759 -0.04,-1.6969 -0.08,-3.3922 -0.128,-5.0866 -0.176,-6.3824 -0.399,-12.7546 -0.715,-19.1008 -0.05,-0.9423 -0.111,-1.8792 -0.16,-2.8206 -0.305,-5.7411 -0.671,-11.462 -1.085,-17.1723 -0.115,-1.5807 -0.222,-3.1627 -0.346,-4.741 -0.494,-6.3362 -1.05,-12.66 -1.679,-18.9563 -0.115,-1.13 -0.247,-2.2543 -0.362,-3.383 -0.589,-5.6729 -1.231,-11.3243 -1.929,-16.9634 -0.16,-1.291 -0.308,-2.584 -0.474,-3.8732 -0.812,-6.3368 -1.688,-12.6559 -2.635,-18.9482 -0.19,-1.2534 -0.391,-2.501 -0.587,-3.7526 -0.814,-5.2481 -1.68,-10.478 -2.588,-15.6938 -0.275,-1.594 -0.549,-3.1902 -0.836,-4.7812 -1.087,-6.0518 -2.234,-12.0818 -3.447,-18.0884 -0.275,-1.3639 -0.57,-2.7205 -0.852,-4.0821 -1.105,-5.3432 -2.26,-10.669 -3.463,-15.975 -0.259,-1.1482 -0.507,-2.3008 -0.771,-3.4473 -1.41,-6.0989 -2.891,-12.1691 -4.428,-18.2169 -0.345,-1.3554 -0.702,-2.7054 -1.053,-4.058 -1.371,-5.2863 -2.783,-10.5525 -4.251,-15.7983 -0.3,-1.0696 -0.58,-2.1463 -0.884,-3.2142 -1.661,-5.8524 -3.402,-11.6774 -5.182,-17.4777 -0.495,-1.6103 -1,-3.2152 -1.503,-4.8214 -1.595,-5.0878 -3.224,-10.1574 -4.91,-15.2036 -0.325,-0.979 -0.642,-1.9635 -0.972,-2.941 -1.955,-5.7833 -3.986,-11.5339 -6.059,-17.2607 -0.525,-1.4492 -1.059,-2.8938 -1.591,-4.3393 -2.15,-5.8416 -4.334,-11.6649 -6.606,-17.4455 -0.04,-0.094 -0.07,-0.1872 -0.111,-0.2814 -2.221,-5.6462 -4.527,-11.2482 -6.862,-16.8348 -0.662,-1.5822 -1.323,-3.1637 -1.993,-4.7411 -2.16,-5.0788 -4.353,-10.1355 -6.605,-15.1634 -0.715,-1.5935 -1.447,-3.1768 -2.17,-4.7651 -1.983,-4.3545 -3.998,-8.6949 -6.051,-13.0098 -0.877,-1.8441 -1.762,-3.6838 -2.652,-5.5206 -2.471,-5.0985 -4.97,-10.1783 -7.537,-15.2196 -0.691,-1.3556 -1.401,-2.6986 -2.098,-4.05 -2.177,-4.2193 -4.393,-8.4138 -6.637,-12.5919 -0.892,-1.6602 -1.782,-3.3206 -2.684,-4.9741 -2.688,-4.9272 -5.408,-9.8295 -8.189,-14.6973 -0.992,-1.7382 -2.009,-3.4605 -3.013,-5.1911 -2.052,-3.535 -4.127,-7.0562 -6.228,-10.5589 -1.155,-1.9265 -2.31,-3.8531 -3.479,-5.7697 -2.817,-4.6142 -5.674,-9.2009 -8.574,-13.7571 -1.19,-1.8695 -2.397,-3.7252 -3.6,-5.5848 -2.165,-3.3443 -4.355,-6.6683 -6.566,-9.9803 -1.167,-1.75 -2.323,-3.5065 -3.503,-5.2473 -3.028,-4.4669 -6.1,-8.9011 -9.209,-13.3071 -1.375,-1.9489 -2.772,-3.8811 -4.162,-5.8179 -2.222,-3.0934 -4.465,-6.1706 -6.726,-9.233 -1.318,-1.7843 -2.623,-3.5781 -3.954,-5.3518 -3.189,-4.2494 -6.4257,-8.4605 -9.6908,-12.6482 -1.4425,-1.8506 -2.8981,-3.6902 -4.3554,-5.5286 -2.571,-3.2428 -5.1618,-6.4705 -7.7784,-9.675 -1.1956,-1.4644 -2.3789,-2.9392 -3.584,-4.3955 -3.3001,-3.9878 -6.6503,-7.934 -10.0207,-11.8607 -1.8157,-2.1157 -3.6445,-4.2183 -5.4803,-6.3161 -2.2739,-2.5981 -4.566,-5.176 -6.8704,-7.7464 -2.39,-2.666 -4.7935,-5.3195 -7.216,-7.9553 -2.6447,-2.8767 -5.3046,-5.7419 -7.9875,-8.5821 -1.8707,-1.9808 -3.7518,-3.9515 -5.6411,-5.9143 -2.5656,-2.665 -5.1552,-5.3075 -7.7546,-7.9393 -2.6331,-2.6663 -5.2876,-5.3074 -7.9553,-7.9393 -2.4192,-2.3867 -4.8409,-4.7695 -7.2885,-7.1276 -2.1102,-2.0338 -4.2328,-4.0547 -6.364,-6.067 -2.3899,-2.256 -4.8005,-4.489 -7.216,-6.7178 -3.3276,-3.0708 -6.6771,-6.1181 -10.0528,-9.1366 -2.1193,-1.8947 -4.2423,-3.7832 -6.3805,-5.6572 -2.3373,-2.0489 -4.6791,-4.0912 -7.0391,-6.1151 -2.6845,-2.3022 -5.395,-4.5769 -8.108,-6.8465 -3.1943,-2.6722 -6.4092,-5.3207 -9.643,-7.9473 -2.3053,-1.8723 -4.6179,-3.7359 -6.9429,-5.5848 -2.2941,-1.8244 -4.5895,-3.6467 -6.9025,-5.4482 -3.8222,-2.9764 -7.6657,-5.9263 -11.5393,-8.8393 -2.5566,-1.9228 -5.1355,-3.8184 -7.7143,-5.7133 -2.072,-1.5224 -4.1497,-3.0359 -6.2356,-4.5402 -2.5492,-1.8383 -5.096,-3.6774 -7.6661,-5.4884 -3.7967,-2.675 -7.6172,-5.3163 -11.4591,-7.9312 -2.9985,-2.0414 -6.0221,-4.0466 -9.0482,-6.0509 -1.6103,-1.0668 -3.2272,-2.1259 -4.8453,-3.1822 -5.1713,-3.3756 -10.3816,-6.6973 -15.6294,-9.9642 -1.5585,-0.97 -3.1038,-1.9567 -4.6689,-2.917 -0.099,-0.061 -0.2057,-0.1155 -0.3044,-0.1768 -32.3856,-19.856 -66.193,-37.6276 -101.2418,-53.1481 -1.8469,-0.8269 -3.6876,-1.6648 -5.5526,-2.475 -1.9403,-0.8423 -3.9011,-1.6558 -5.8501,-2.4911 -1.3639,-0.5804 -2.7228,-1.1701 -4.0904,-1.7437 -1.3178,-0.5561 -2.6253,-1.1336 -3.9452,-1.6795 -0.2139,-0.088 -0.4295,-0.1691 -0.643,-0.2571 -0.6032,-0.2488 -1.1965,-0.524 -1.8,-0.7715 -1.8424,-0.7551 -3.7169,-1.4346 -5.5687,-2.1616 -11.4817,-4.6145 -23.0881,-8.9835 -34.8109,-13.1142 -0.2551,-0.09 -0.5073,-0.1914 -0.7632,-0.2813 -0.3662,-0.1281 -0.7361,-0.242 -1.101,-0.3696 -26.4882,-9.2655 -53.5725,-17.2821 -81.1846,-23.9786 v -0.08 c -1.3174,-0.3196 -2.6657,-0.5864 -3.986,-0.9 -0.3579,-0.085 -0.7245,-0.1641 -1.0845,-0.2491 -3.5411,-0.8361 -7.0893,-1.6503 -10.6473,-2.4429 -0.2016,-0.045 -0.4073,-0.091 -0.611,-0.1366 -1.2511,-0.2779 -2.4743,-0.6275 -3.7284,-0.9 -3.6938,-0.8039 -7.3456,-1.5573 -11.0571,-2.3143 -0.8969,-0.1825 -1.8016,-0.3344 -2.7002,-0.5142 -1.621,-0.3247 -3.2548,-0.6035 -4.8775,-0.9161 -11.3879,-2.2136 -22.8387,-4.2544 -34.3846,-6.0188 -0.2428,-0.044 -0.4798,-0.099 -0.7233,-0.1365 -2.3904,-0.3633 -4.803,-0.6849 -7.2,-1.0286 -2.9286,-0.4209 -5.8871,-0.7931 -8.8391,-1.1813 -37.909,-5.03 -76.5775,-7.6831 -115.8911,-7.6831 z"
         id="path7477"
         inkscape:connector-curvature="0" />
      <path
         style="color:#000000;font-style:normal;font-variant:normal;font-weight:normal;font-stretch:normal;font-size:medium;line-height:normal;font-family:Sans;-inkscape-font-specification:Sans;text-indent:0;text-align:start;text-decoration:none;text-decoration-line:none;letter-spacing:normal;word-spacing:normal;text-transform:none;writing-mode:lr-tb;direction:ltr;baseline-shift:baseline;text-anchor:start;display:inline;overflow:visible;visibility:visible;fill:#ffffff;fill-opacity:1;stroke:none;stroke-width:1;stroke-miterlimit:4;stroke-dasharray:none;marker:none;filter:url(#filter7585);enable-background:accumulate"
         d="m 6434.75,487.11133 a 17.50175,17.50175 0 0 0 -17.25,17.75 v 6 a 17.50175,17.50175 0 0 1 17.25,-17.75 17.50175,17.50175 0 0 1 17.75,17.75 v -6 a 17.50175,17.50175 0 0 0 -17.75,-17.75 z m 650,0 a 17.50175,17.50175 0 0 0 -17.25,17.75 v 6 a 17.50175,17.50175 0 0 1 17.25,-17.75 17.50175,17.50175 0 0 1 17.75,17.75 v -6 a 17.50175,17.50175 0 0 0 -17.75,-17.75 z m -632.25,477.75 v 6 c 0,26.04633 12.647,67.29387 38.8438,99.96877 26.1965,32.6746 64.4154,57.5312 118.6562,57.5312 h 150 150 c 54.2408,0 92.4596,-24.8565 118.6562,-57.5312 26.1968,-32.6749 38.8438,-73.92244 38.8438,-99.96877 v -6 c 0,26.04633 -12.647,67.29387 -38.8438,99.96877 -26.1966,32.6747 -64.4154,57.5312 -118.6562,57.5312 h -150 -150 c -54.2408,0 -92.4597,-24.8566 -118.6562,-57.5312 C 6465.147,1032.1552 6452.5,990.90766 6452.5,964.86133 Z"
         id="path7570"
         inkscape:connector-curvature="0"
         transform="matrix(4.11428,0,0,4.11428,-18870.136,-2138.6317)" />
    </g>
  </g>
</svg>
